<svg xmlns="http://www.w3.org/2000/svg" viewBox="0 0 424 160"><defs><style>.cls-1{fill:none;}.cls-2{fill:#fff;}</style></defs><g id="Layer_2" data-name="Layer 2"><g id="Layer_8" data-name="Layer 8"><rect class="cls-1" width="424" height="160"/><path class="cls-2" d="M209.82,68.72c0,7.46-6.21,12.34-15.45,12.34H178a2.15,2.15,0,0,1-2.37-2.37V37.23A2.15,2.15,0,0,1,178,34.86h14.26c8.85,0,15.38,4.48,15.38,11.94,0,4.76-2.71,9.05-8.71,10.57C206.19,58.16,209.82,63,209.82,68.72ZM182.62,40.6V55.19h7c7.86,0,10.83-3.9,10.83-7.86,0-4.42-3.83-6.73-8.25-6.73Zm20.07,27.86c0-4.1-3.43-8-11.62-8h-8.45V75.32h11.69C199.19,75.32,202.69,72.61,202.69,68.46Z"/><path class="cls-2" d="M215.29,64.63c0-9.64,7.53-17.36,17.82-17.36,8.32,0,15.91,4.95,16.84,15.51.2,1.58-.73,2.44-2.31,2.44H222c-.2,6.14,4.88,10.63,12.07,10.63a15.49,15.49,0,0,0,9-2.77,2.39,2.39,0,0,1,3.37.33l.46.52c1.06,1.13,1.06,2.51-.46,3.77A19.22,19.22,0,0,1,234,81.79C222.42,81.79,215.29,74.07,215.29,64.63Zm27.92-4.43c-1.71-5.87-6.33-7.12-10-7.12-3.83,0-8.59,1.51-10.63,7.12Z"/><path class="cls-2" d="M254.76,64.5c0-9.51,6.53-17.23,16.37-17.23a13.63,13.63,0,0,1,11.81,5.94V50.37A2.21,2.21,0,0,1,285.39,48h2a2.15,2.15,0,0,1,2.37,2.38V78.69a2.15,2.15,0,0,1-2.37,2.37h-2a2.2,2.2,0,0,1-2.45-2.37V75.85a13.65,13.65,0,0,1-11.81,5.94C261.29,81.79,254.76,74,254.76,64.5Zm28.32,0c-.07-6.54-4.49-11.36-11-11.36s-10.49,5.22-10.49,11.36,3.83,11.35,10.49,11.35S283,71,283.08,64.5Z"/><path class="cls-2" d="M302.35,93.14a2.34,2.34,0,0,1-.73-3.3l.53-.92c.72-1.52,1.85-1.65,3.23-.79a17.56,17.56,0,0,0,9.44,2.57c6.34,0,10.69-3.63,10.69-10.63V75.85a13.65,13.65,0,0,1-11.81,5.94c-9.9,0-16.37-7.79-16.37-17.29s6.47-17.23,16.37-17.23a13.63,13.63,0,0,1,11.81,5.94V50.3A2.19,2.19,0,0,1,328,48h1.91a2.2,2.2,0,0,1,2.44,2.38V80.54c0,11.22-8.25,16-17.42,16A21.65,21.65,0,0,1,302.35,93.14Zm23.3-28.64c-.07-6.54-4.49-11.36-11-11.36s-10.49,5.22-10.49,11.36S308,75.85,314.62,75.85,325.58,71,325.65,64.5Z"/><path class="cls-2" d="M342.41,78.69v-43a2.2,2.2,0,0,1,2.44-2.37h2a2.16,2.16,0,0,1,2.38,2.37v43a2.15,2.15,0,0,1-2.38,2.37h-2A2.2,2.2,0,0,1,342.41,78.69Z"/><path class="cls-2" d="M356.92,64.63c0-9.64,7.53-17.36,17.83-17.36,8.32,0,15.91,4.95,16.83,15.51.2,1.58-.73,2.44-2.31,2.44H363.66c-.2,6.14,4.88,10.63,12.08,10.63a15.53,15.53,0,0,0,9-2.77,2.38,2.38,0,0,1,3.36.33l.46.52c1.06,1.13,1.06,2.51-.46,3.77a19.22,19.22,0,0,1-12.41,4.09C364.05,81.79,356.92,74.07,356.92,64.63Zm27.93-4.43c-1.72-5.87-6.34-7.12-10-7.12-3.83,0-8.58,1.51-10.63,7.12Z"/><path class="cls-2" d="M129.35,64.54V32.13a13.46,13.46,0,0,0-9-12.66L70.89,2.11a13.73,13.73,0,0,0-9.08,0L12.41,19.47A13.46,13.46,0,0,0,3.35,32.13V93.45h0c0,30.7,27.33,46.59,49.29,59.35,2.29,1.33,4.54,2.63,6.7,3.93a13.7,13.7,0,0,0,6.06,1.9c.32,0,.63,0,.95,0a13.65,13.65,0,0,0,7-1.93c2.17-1.3,4.42-2.6,6.71-3.93,18.12-10.54,39.86-23.22,46.92-44.59a40.51,40.51,0,0,0,15.68-30.67c0-.4,0-.79,0-1.19V67.84Zm-51.29,84.8c-2.3,1.34-4.56,2.65-6.75,3.95a9.57,9.57,0,0,1-5,1.35V144.56L19.07,106.92A31.58,31.58,0,0,1,7.35,83.6V32.13a9.47,9.47,0,0,1,6.39-8.89L63.13,5.88a9.7,9.7,0,0,1,6.44,0L119,23.24a9.46,9.46,0,0,1,6.38,8.89V63.55l-8.73-2.17a7.61,7.61,0,0,1-4.41-3L104,46.62A27.65,27.65,0,0,0,81.39,34.81H46.73a16.43,16.43,0,0,0-13.49,7.06L16.15,66.53a27.71,27.71,0,0,0,5.42,37.27l40.27,32.27a16.48,16.48,0,0,0,10.29,3.61,17.25,17.25,0,0,0,2.58-.2,16.48,16.48,0,0,0,11.16-7.25l6-9.17a16.53,16.53,0,0,0,2.44-6.25h0a11.91,11.91,0,0,0-1.6-7.16L80.93,89.22a2,2,0,0,1,3.47-2l11.79,20.42a16.33,16.33,0,0,1,2.07,6.18,16.64,16.64,0,0,1,.09,3h3.87c.78,0,1.56,0,2.31-.06A39.78,39.78,0,0,0,121.22,112C113.21,128.88,94.8,139.61,78.06,149.34Zm9.82-94.59a4.8,4.8,0,1,1-4.8,4.8A4.8,4.8,0,0,1,87.88,54.75Zm16.41,58c-.2,0-.41,0-.61,0,16.63-23.39,16.54-24.75-15.77-73a23.6,23.6,0,0,1,12.84,9.14l8.18,11.73a11.62,11.62,0,0,0,6.73,4.63l17,4.2a6.11,6.11,0,0,0-.22,1.55,6.4,6.4,0,0,0,6.26,6.38v0A36.65,36.65,0,0,1,104.29,112.75Z"/><path class="cls-2" d="M175.83,136.4a1.74,1.74,0,0,1,1.35-2.53l1.63-.39c1.24-.29,1.91.17,2.53,1.35a9.42,9.42,0,0,0,8.33,4.33c5.06,0,8.16-2.48,8.16-5.85,0-3-2.48-4.84-5.69-6l-5.85-2c-7.42-2.48-9.22-6.92-9.22-10.58,0-6.8,6-11,12.77-11,6.19,0,10.57,3,12.37,7.43a1.76,1.76,0,0,1-1.35,2.53l-1.4.45a2,2,0,0,1-2.59-1.29c-1.29-2.59-3.71-3.83-7-3.83-3.71,0-6.8,2-6.8,5.51,0,1.63.5,3.77,5,5.46l5.85,2.19c6.64,2.09,9.68,6.47,9.68,10.69,0,7.09-5.62,11.48-13.84,11.48C182.81,144.39,177.85,141,175.83,136.4Z"/><path class="cls-2" d="M208.24,129.76c0-8.21,6.41-14.79,15.19-14.79,7.09,0,13.56,4.22,14.34,13.22.17,1.35-.61,2.08-2,2.08H214c-.17,5.23,4.16,9.06,10.29,9.06a13.2,13.2,0,0,0,7.65-2.36,2,2,0,0,1,2.87.28l.39.45c.91,1,.91,2.13-.39,3.2a16.33,16.33,0,0,1-10.58,3.49C214.31,144.39,208.24,137.81,208.24,129.76ZM232,126c-1.47-5-5.41-6.07-8.5-6.07-3.26,0-7.32,1.29-9.06,6.07Z"/><path class="cls-2" d="M241.88,130c0-8.27,5.69-15,15.87-15a16.89,16.89,0,0,1,8.5,2.3,1.8,1.8,0,0,1,.56,2.87l-.45.57c-.79,1.07-1.63,1.12-2.87.56A13,13,0,0,0,258,120c-6,0-10.35,3.94-10.35,9.62s4.39,9.68,10.35,9.68a13,13,0,0,0,5.46-1.24c1.24-.62,2.14-.51,2.87.56l.39.56c.79,1.07.39,2.42-1.41,3.32a15.86,15.86,0,0,1-7.59,1.86C247.79,144.39,241.88,138,241.88,130Z"/><path class="cls-2" d="M273.33,131.51v-13.9a1.84,1.84,0,0,1,2-2h1.69a1.88,1.88,0,0,1,2.08,2v13.84c0,5.74,2.59,7.88,5.57,7.88s8.78-2,8.78-10.52v-11.2a1.83,1.83,0,0,1,2-2h1.69a1.88,1.88,0,0,1,2.08,2v24.14a1.88,1.88,0,0,1-2.08,2H295.5a1.83,1.83,0,0,1-2-2v-3.49c-1.24,3.94-4.84,6.13-9.4,6.13C277.84,144.39,273.33,140.34,273.33,131.51Z"/><path class="cls-2" d="M307.71,141.75V117.61a1.88,1.88,0,0,1,2.08-2h1.69a1.84,1.84,0,0,1,2,2v4.28c.95-4.5,4.16-6.92,7.54-6.92l1.23,0c1.18.17,1.35,1.13,1.35,2.25v1.64c0,1.4-.56,2-1.51,1.74a7.23,7.23,0,0,0-1.52-.17c-2,0-7.09,1-7.09,12.55v8.72a1.84,1.84,0,0,1-2,2h-1.69A1.88,1.88,0,0,1,307.71,141.75Z"/><path class="cls-2" d="M327.69,106.64a3.83,3.83,0,0,1,3.88-3.94,3.89,3.89,0,1,1,0,7.77A3.77,3.77,0,0,1,327.69,106.64Zm1,35.11V117.61a1.88,1.88,0,0,1,2.08-2h1.69a1.83,1.83,0,0,1,2,2v24.14a1.83,1.83,0,0,1-2,2h-1.69A1.88,1.88,0,0,1,328.7,141.75Z"/><path class="cls-2" d="M344.57,134.83V120.09h-3.43a1.05,1.05,0,0,1-1.13-1.18v-2.2a1,1,0,0,1,1.13-1.12h3.54l1-6.47a1.7,1.7,0,0,1,1.8-1.63h1.18a1.58,1.58,0,0,1,1.69,1.74v6.36h7.71a1,1,0,0,1,1.12,1.12v2.2a1,1,0,0,1-1.12,1.18h-7.71v15.07c0,3,1.46,4.22,3.26,4.22a3,3,0,0,0,3.32-3,4.34,4.34,0,0,0-.11-1.07c-.11-.79.23-1.3,1-1.3h2.59a1.15,1.15,0,0,1,1.3,1,10.44,10.44,0,0,1,.22,2.08c0,4.22-3,7.31-8.44,7.31C349,144.39,344.57,142.09,344.57,134.83Z"/><path class="cls-2" d="M370.39,154l4.33-11.31L363.92,118c-.62-1.41.06-2.36,1.58-2.36h2.25a2.21,2.21,0,0,1,2.31,1.57l7.82,19.07,7.2-19a2.32,2.32,0,0,1,2.42-1.63h2.3c1.52,0,2.2.9,1.58,2.36l-15.7,36.85a2.24,2.24,0,0,1-2.36,1.57H372C370.45,156.37,369.83,155.42,370.39,154Z"/></g></g></svg>
